<svg width="20.632999999999996" height="20.632999999999996" xmlns="http://www.w3.org/2000/svg">

 <g>
  <title>background</title>
  <rect fill="none" id="canvas_background" height="402" width="582" y="-1" x="-1"/>
 </g>
 <g>
  <title>Layer 1</title>
  <g id="svg_1">
   <path fill="#ffffff" id="svg_2" d="m10.79,15.617l9.648,-9.646c0.133,-0.131 0.195,-0.301 0.195,-0.473s-0.062,-0.344 -0.195,-0.473l-0.012,-0.012c-0.125,-0.127 -0.295,-0.195 -0.472,-0.195l-4.682,0c-0.18,0 -0.348,0.068 -0.473,0.195l-4.48,4.479l-4.48,-4.479c-0.128,-0.127 -0.299,-0.195 -0.473,-0.195l-4.682,0c-0.182,0 -0.349,0.068 -0.475,0.195l-0.013,0.012c-0.128,0.123 -0.196,0.297 -0.196,0.473c0,0.176 0.068,0.348 0.196,0.473l9.648,9.646c0.264,0.263 0.686,0.263 0.946,0z"/>
   <g id="svg_3"/>
   <g id="svg_4"/>
   <g id="svg_5"/>
   <g id="svg_6"/>
   <g id="svg_7"/>
   <g id="svg_8"/>
   <g id="svg_9"/>
   <g id="svg_10"/>
   <g id="svg_11"/>
   <g id="svg_12"/>
   <g id="svg_13"/>
   <g id="svg_14"/>
   <g id="svg_15"/>
   <g id="svg_16"/>
   <g id="svg_17"/>
  </g>
  <g id="svg_18"/>
  <g id="svg_19"/>
  <g id="svg_20"/>
  <g id="svg_21"/>
  <g id="svg_22"/>
  <g id="svg_23"/>
  <g id="svg_24"/>
  <g id="svg_25"/>
  <g id="svg_26"/>
  <g id="svg_27"/>
  <g id="svg_28"/>
  <g id="svg_29"/>
  <g id="svg_30"/>
  <g id="svg_31"/>
  <g id="svg_32"/>
 </g>
</svg>