<svg width="192" height="105" viewBox="0 0 192 105" fill="none" xmlns="http://www.w3.org/2000/svg">
<path d="M166.048 95.8832C166.048 90.8533 170.16 87.0808 175.22 87.0808H183.127C188.188 87.0808 192.299 91.1677 191.983 96.1976C191.983 101.228 187.871 105 182.811 105H174.904C168.578 104.371 166.048 99.0269 166.048 95.8832ZM43.3305 95.2545C43.3305 81.1078 49.0236 67.9042 59.1446 58.1587C69.2656 48.4132 82.5495 43.0689 96.7822 43.0689C125.88 43.3832 149.601 66.9611 149.285 95.8832C149.285 100.913 145.173 104.686 140.113 104.686C135.052 104.686 131.257 100.599 131.257 95.5689C131.257 76.3922 115.759 60.988 96.7822 60.6736C87.61 60.6736 78.7541 64.1317 72.1122 70.7335C65.4703 77.3353 61.6749 85.8233 61.6749 95.2545C61.6749 100.284 57.5633 104.371 52.5028 104.057C47.126 104.057 43.3305 99.6557 43.3305 95.2545ZM0 94.6257C0 89.5958 4.11164 85.8233 9.17215 85.8233H17.0792C22.1397 85.8233 25.935 89.9102 25.935 94.9401C25.935 99.9701 21.8234 103.743 16.7629 103.743H8.85585C2.8465 103.428 0 97.7695 0 94.6257ZM87.61 16.6617V8.80239C87.61 3.77245 91.7217 0 96.7822 0C101.843 0 105.638 4.08683 105.638 9.11677V16.976C105.638 22.006 101.526 26.0928 96.4659 25.7784C90.1403 25.4641 87.61 19.8054 87.61 16.6617ZM34.1584 45.8982L28.4653 40.2395C24.9862 36.7814 24.9862 31.1228 28.4653 27.6647C31.9444 24.2066 37.6375 24.2066 41.1166 27.6647L46.8096 33.3234C50.2887 36.7814 50.2887 42.4401 46.8096 45.8982C43.6468 49.0419 38.5863 49.6707 34.1584 45.8982ZM145.806 46.5269C142.327 43.0689 142.327 37.4102 145.806 33.9521L151.499 28.2934C154.978 24.8353 160.671 24.8353 164.15 28.2934C167.629 31.7515 167.629 37.4102 164.15 40.8683L158.457 46.5269C155.611 49.6707 149.601 50.2994 145.806 46.5269Z" fill="#FCAF17"/>
</svg>
