<svg width="52" height="52" viewBox="0 0 52 52" fill="none" xmlns="http://www.w3.org/2000/svg">
<path d="M49.9679 24.2806C48.9779 24.2806 48.3006 25.2184 48.0401 25.2184C48.7174 24.0721 49.2385 23.3427 48.4569 22.509C47.988 22.0401 46.7896 21.7275 45.8517 23.0301C44.8617 24.489 44.9659 25.3226 43.7154 25.3226C43.7154 25.3226 45.6954 23.9679 44.3928 22.6132C43.507 21.7274 42.0481 22.0922 41.6834 23.0301C41.3707 23.8637 41.2144 25.5311 40.0681 25.479C40.0681 25.479 40.1723 25.4268 40.2765 25.3226C40.9539 24.6453 40.9018 23.6553 40.3287 23.1343C39.7555 22.6132 38.6613 22.5611 37.984 23.2385C37.3587 23.8637 37.3587 25.6353 36.3687 25.6353H33.4509C34.2846 25.5832 34.7535 24.6453 35.1182 23.5511C34.2846 22.7695 33.4509 22.2485 32.6693 22.509L35.2224 21.1022C36.0561 20.6333 36.9419 22.1443 37.7755 22.3527C38.6613 22.6132 39.5992 21.988 39.8597 21.2585C40.1202 20.4769 39.6513 19.5912 38.7134 19.3828C38.5571 19.3307 38.4529 19.3828 38.4529 19.3828C39.3908 18.7575 40.3287 20.1643 41.0581 20.6854C41.8397 21.3106 43.2986 20.8938 43.6112 19.6954C44.0802 17.8196 41.6834 17.6633 41.6834 17.6633C42.7775 17.0902 43.0902 17.8717 44.7054 18.6012C46.1122 19.2786 47.0501 18.3928 47.2064 17.7675C47.4669 16.6733 46.6333 16.2565 45.487 15.6313C45.7475 15.4749 46.7896 15.9439 47.6232 15.4749C48.3006 15.1102 49.3948 13.8597 48.8216 12.9218C48.2485 11.9319 46.6854 12.2966 46.008 12.6613C45.1743 13.1303 45.018 14.2766 44.8096 14.4329C44.8096 13.1303 44.9138 12.1924 43.8196 11.8798C43.1944 11.6713 41.9439 12.0361 41.8397 13.6513C41.6834 15.3707 42.2044 16.1002 41.1623 16.7254C41.1623 16.7254 42.2044 14.5892 40.3808 14.016C39.1824 13.6513 38.0882 14.7455 38.2445 15.7355C38.3487 16.6212 39.0781 18.1323 38.0882 18.6533C38.0882 18.6533 38.1403 18.5491 38.1924 18.4449C38.4529 17.5591 37.9319 16.6733 37.0982 16.517C36.3687 16.3607 35.3788 16.8818 35.1182 17.7675C34.9098 18.6533 35.7435 20.1643 34.9098 20.6333C34.9098 20.6333 32.982 21.7796 32.4609 22.0401C33.0341 21.519 32.982 20.5812 32.7735 19.5391C31.6794 19.2786 30.7415 19.2786 30.1683 19.8517L31.5751 17.4028C32.0441 16.5691 33.5551 17.4549 34.4409 17.1944C35.3266 16.9339 35.8477 15.9439 35.6914 15.2144C35.5351 14.3808 34.6493 13.9118 33.7635 14.1202C33.6072 14.1723 33.5551 14.2244 33.5551 14.2244C34.0761 13.2345 35.5872 13.9639 36.4729 14.0681C37.4629 14.2244 38.505 13.1303 38.1924 11.9319C37.6713 10.1082 35.483 11.1503 35.483 11.1503C36.1082 10.1082 36.7856 10.6293 38.5571 10.4729C40.1202 10.3166 40.485 9.11823 40.3287 8.49298C40.016 7.3988 39.0781 7.50301 37.7755 7.50301C37.9319 7.24248 39.026 7.13828 39.5471 6.30461C39.9118 5.62725 40.2765 4.06413 39.2866 3.49098C38.2966 2.91784 37.0982 4.01202 36.7335 4.68938C36.2645 5.52305 36.6814 6.56513 36.5771 6.82565C35.9519 5.67936 35.5351 4.84569 34.4409 5.10621C33.7635 5.26252 32.9299 6.2004 33.6072 7.60721C34.3367 9.17034 35.1182 9.53507 34.5451 10.6293C34.5451 10.6293 34.3888 8.23246 32.513 8.7014C31.3146 9.01403 30.8978 10.4729 31.523 11.2545C32.0962 11.9319 33.4509 12.9218 32.8256 13.8597C32.8256 13.8597 32.8256 13.7555 32.8256 13.5992C32.5651 12.7134 31.7315 12.1924 30.9499 12.4529C30.2204 12.6613 29.5952 13.5992 29.8557 14.5371C30.0641 15.4228 31.6272 16.2565 31.1062 17.0902L29.6994 19.5912C30.012 18.9138 29.4389 18.0281 28.6573 17.1944C27.6152 17.507 26.7295 17.9759 26.5731 18.7054L26.6252 15.9439C26.6252 14.9539 28.3968 14.9539 29.022 14.3287C29.6994 13.6513 29.6473 12.5571 29.1262 11.984C28.5531 11.3587 27.5631 11.3587 26.9379 12.0361C26.8337 12.1403 26.7816 12.2445 26.7816 12.2445C26.7295 11.1503 28.3968 10.994 29.2305 10.6293C30.1683 10.2645 30.5331 8.80561 29.6473 7.91984C28.2405 6.56513 26.9379 8.59719 26.9379 8.59719C26.99 7.3988 27.8236 7.4509 29.2305 6.46092C30.5331 5.57515 30.2204 4.32465 29.7515 3.85571C28.9178 3.07415 28.1884 3.59519 27.0421 4.27254C27.0421 4.01202 27.98 3.33467 27.98 2.34469C27.98 1.56313 27.511 0 26.3647 0C25.2184 0 24.7495 1.56313 24.7495 2.34469C24.7495 3.33467 25.6874 4.01202 25.6874 4.27254C24.5411 3.59519 23.8116 3.07415 22.978 3.85571C22.509 4.32465 22.1964 5.52305 23.499 6.46092C24.9579 7.4509 25.7916 7.34669 25.8437 8.59719C25.8437 8.59719 24.489 6.61723 23.1343 7.91984C22.2485 8.80561 22.6132 10.2645 23.5511 10.6293C24.3848 10.9419 26.0521 11.0982 26 12.2445C26 12.2445 25.9479 12.1403 25.8437 12.0361C25.1663 11.3587 24.1763 11.4108 23.6553 11.984C23.1343 12.5571 23.0822 13.6513 23.7595 14.3287C24.3848 14.9539 26.1563 14.9539 26.1563 15.9439L26.2084 18.7054C26.0521 17.9759 25.1663 17.5591 24.1242 17.1944C23.3427 18.0281 22.7695 18.9138 23.0822 19.5912L21.3106 16.8297C20.8417 15.996 22.3527 15.1102 22.5611 14.2766C22.8216 13.3908 22.1964 12.4529 21.4669 12.1924C20.6854 11.9319 19.7996 12.4008 19.5912 13.3387C19.5391 13.495 19.5912 13.5992 19.5912 13.5992C18.9659 12.6613 20.3727 11.7234 20.8938 10.994C21.519 10.2124 21.1022 8.7535 19.9038 8.44088C18.0281 7.97194 17.8717 10.3687 17.8717 10.3687C17.2986 9.27455 18.0802 8.96192 18.8096 7.34669C19.487 5.88777 18.6012 5.002 17.9759 4.84569C16.8818 4.58517 16.4649 5.41884 15.8397 6.56513C15.6834 6.30461 16.1523 5.26252 15.6834 4.42886C15.2665 3.80361 14.0681 2.70942 13.0782 3.28256C12.0882 3.85571 12.4529 5.41884 12.8176 6.09619C13.2866 6.92986 14.4329 7.08617 14.5892 7.29459C13.2866 7.29459 12.3487 7.19038 12.0361 8.28457C11.8277 8.90982 12.1924 10.1603 13.8076 10.2645C15.5271 10.4208 16.2565 9.8998 16.8818 10.9419C16.8818 10.9419 14.7455 9.8998 14.1723 11.7234C13.8076 12.9218 14.9018 14.016 15.8918 13.8597C16.7776 13.7555 18.2886 13.026 18.8096 14.016C18.8096 14.016 18.7054 13.9639 18.6012 13.9118C17.7154 13.6513 16.8297 14.1723 16.6733 15.006C16.517 15.7355 17.0381 16.7254 17.9238 16.986C18.8096 17.1944 20.3206 16.3607 20.7896 17.1944L22.1964 19.6433C21.6232 19.0701 20.6854 19.1222 19.5912 19.3307C19.3828 20.3727 19.3307 21.3627 19.9038 21.8317C19.3828 21.5711 17.4549 20.4248 17.4549 20.4248C16.6212 19.9559 17.507 18.4449 17.2465 17.5591C16.986 16.6733 15.996 16.1523 15.2665 16.3086C14.4329 16.4649 13.9639 17.3507 14.1723 18.2365C14.2244 18.3928 14.2766 18.4449 14.2766 18.4449C13.2866 17.9238 14.016 16.4128 14.1202 15.5271C14.2766 14.5371 13.1824 13.495 11.984 13.8076C10.1603 14.3287 11.2024 16.517 11.2024 16.517C10.1603 15.8918 10.6814 15.2144 10.525 13.4429C10.3687 11.8798 9.17034 11.515 8.54509 11.6713C7.4509 11.984 7.55511 12.9218 7.55511 14.2244C7.29459 14.0681 7.19038 12.9739 6.35671 12.4529C5.67936 12.0882 4.11623 11.7234 3.54309 12.7134C2.96994 13.7034 4.06413 14.9018 4.74148 15.2665C5.57515 15.7355 6.61723 15.3186 6.87775 15.4228C5.73146 16.0481 4.89779 16.4649 5.15832 17.5591C5.31463 18.2365 6.2525 19.0701 7.65932 18.3928C9.22244 17.6633 9.58717 16.8818 10.6814 17.4549C10.6814 17.4549 8.28457 17.6112 8.7535 19.487C9.06613 20.6854 10.525 21.1022 11.3066 20.4769C12.0361 19.9038 12.9739 18.5491 13.9118 19.1743C13.9118 19.1743 13.8076 19.1743 13.6513 19.1743C12.7655 19.4349 12.2445 20.2685 12.505 21.0501C12.7134 21.7796 13.6513 22.4048 14.5892 22.1443C15.4749 21.9359 16.3086 20.3727 17.1423 20.8938L19.6954 22.3006C18.9138 22.0401 18.0802 22.5611 17.2465 23.3427C17.6112 24.4369 18.0802 25.3226 18.9138 25.4268H15.996C15.006 25.4268 15.006 23.6553 14.3808 23.0301C13.5992 22.509 12.505 22.5611 11.9319 23.0822C11.3066 23.6553 11.3066 24.6453 11.984 25.2705C12.0882 25.3747 12.1924 25.4268 12.1924 25.4268C11.0982 25.479 10.9419 23.8116 10.5772 22.978C10.2124 22.0401 8.75351 21.6753 7.86773 22.5611C6.51303 23.9679 8.54509 25.2705 8.54509 25.2705C7.34669 25.2184 7.3988 24.3848 6.40882 22.978C5.52305 21.6753 4.27254 21.988 3.80361 22.4569C3.02204 23.2906 3.54309 24.02 4.27254 25.1663C4.01202 25.1663 3.33467 24.2285 2.34469 24.2285C1.56313 24.2806 0 24.7495 0 25.8958C0 27.0421 1.56313 27.511 2.34469 27.511C3.33467 27.511 4.01202 26.5731 4.27254 26.5731C3.59519 27.7194 3.07415 28.4489 3.85571 29.2826C4.32465 29.7515 5.52305 30.0641 6.46092 28.7615C7.4509 27.3026 7.34669 26.4689 8.59719 26.4168C8.59719 26.4168 6.61723 27.7715 7.91984 29.1262C8.80561 30.012 10.2645 29.6473 10.6293 28.7094C10.9419 27.8757 11.0982 26.2084 12.2445 26.2605C12.2445 26.2605 12.1403 26.3126 12.0361 26.4168C11.3587 27.0942 11.4108 28.0842 11.984 28.6052C12.5571 29.1262 13.6513 29.1784 14.3287 28.501C14.9539 27.8757 14.9539 26.1042 15.9439 26.1042H18.6012C17.9238 26.3647 17.507 27.1463 17.1944 28.1363C18.0281 28.9178 18.8617 29.4389 19.6433 29.0741V29.1262L17.0902 30.5852C16.2565 31.0541 15.3707 29.5431 14.485 29.3347C13.5992 29.0741 12.6613 29.6994 12.4008 30.4289C12.1403 31.2104 12.6092 32.0962 13.5471 32.3046C13.7034 32.3567 13.8076 32.3046 13.8076 32.3046C12.8697 32.9299 11.9319 31.523 11.2024 31.002C10.4208 30.3767 8.96192 30.7936 8.6493 31.992C8.18036 33.8677 10.5772 34.024 10.5772 34.024C9.48296 34.5972 9.17034 33.8156 7.55511 33.0862C6.1483 32.4088 5.21042 33.2946 5.05411 33.9198C4.79359 35.014 5.62725 35.4309 6.77355 36.0561C6.51302 36.2124 5.47094 35.7435 4.63727 36.2124C3.95992 36.5771 2.86573 37.8276 3.43888 38.7655C4.01202 39.7555 5.57515 39.3908 6.2525 39.026C7.08617 38.5571 7.24248 37.4108 7.4509 37.2545C7.4509 38.5571 7.34669 39.495 8.44088 39.8076C9.06613 40.016 10.3166 39.6513 10.4208 38.0361C10.5772 36.3166 10.0561 35.5872 11.0982 34.9619C11.0982 34.9619 10.0561 37.0982 11.8798 37.6192C13.0782 37.984 14.1723 36.8898 14.016 35.8998C13.9118 35.014 13.1824 33.503 14.1723 32.982C14.1723 32.982 14.1202 33.0862 14.0681 33.1904C13.8076 34.0761 14.3287 34.9619 15.1623 35.1182C15.8918 35.2745 16.8818 34.7535 17.1423 33.8677C17.3507 32.982 16.517 31.4709 17.3507 31.002L19.7475 29.6473C19.2786 30.2204 19.2786 31.1062 19.5391 32.1483C20.6333 32.4088 21.6753 32.4609 22.1443 31.7315L20.6333 34.2846C20.1643 35.1182 18.6533 34.2325 17.7675 34.493C16.8818 34.7535 16.3607 35.7435 16.517 36.4729C16.6733 37.3066 17.5591 37.7755 18.4449 37.5671C18.6012 37.515 18.6533 37.4629 18.6533 37.4629C18.1323 38.4529 16.6212 37.7234 15.7355 37.6192C14.7455 37.4629 13.7034 38.5571 14.016 39.7555C14.5371 41.5792 16.6733 40.5371 16.6733 40.5371C16.0481 41.5792 15.3707 41.0581 13.5992 41.2144C12.0361 41.3707 11.6713 42.5691 11.8277 43.1944C12.1403 44.2886 13.0782 44.1844 14.3808 44.1844C14.2244 44.4449 13.1303 44.5491 12.6092 45.3828C12.2445 46.0601 11.8798 47.6232 12.8697 48.1964C13.8597 48.7695 15.0581 47.6753 15.4228 46.998C15.8918 46.1643 15.4749 45.1222 15.5792 44.8617C16.2044 46.008 16.6212 46.8417 17.7154 46.5812C18.3928 46.4248 19.2264 45.487 18.5491 44.0802C17.8196 42.517 17.0381 42.1523 17.6112 41.0581C17.6112 41.0581 17.7675 43.4549 19.6433 42.986C20.8417 42.6733 21.2585 41.2144 20.6333 40.4329C20.0601 39.7034 18.7054 38.7655 19.3307 37.8277C19.3307 37.8277 19.3307 37.9319 19.3307 38.0882C19.5912 38.9739 20.4248 39.495 21.2064 39.2345C21.9359 39.026 22.5611 38.0882 22.3006 37.1503C22.0922 36.2645 20.5291 35.4309 21.0501 34.5972L22.4569 32.1483C22.2485 32.9299 22.7695 33.7114 23.499 34.493C24.5932 34.1283 25.479 33.6593 25.5832 32.8256V35.7435C25.5832 36.7335 23.8116 36.7335 23.1864 37.3587C22.509 38.0361 22.5611 39.1303 23.0822 39.7034C23.6553 40.3287 24.6453 40.3287 25.2705 39.6513C25.3747 39.5471 25.4268 39.4429 25.4268 39.4429C25.479 40.5371 23.8116 40.6934 22.978 41.0581C22.0401 41.4228 21.6753 42.8818 22.5611 43.7675C23.9679 45.1222 25.2705 43.0902 25.2705 43.0902C25.2184 44.2886 24.3848 44.2365 22.9258 45.2264C21.6232 46.1122 21.9359 47.3627 22.4048 47.8317C23.2385 48.6132 23.9679 48.0922 25.1142 47.3627C25.1142 47.6232 24.1763 48.3006 24.1763 49.2906C24.1763 50.0721 24.6453 51.6353 25.7916 51.6353C26.9379 51.6353 27.4068 50.0721 27.4068 49.2906C27.4068 48.3006 26.4689 47.6232 26.4689 47.3627C27.6152 48.0401 28.3447 48.5611 29.1784 47.8317C29.6473 47.3627 29.9599 46.1643 28.6573 45.2264C27.1984 44.2365 26.3647 44.3407 26.3647 43.0902C26.3647 43.0902 27.7194 45.0701 29.0741 43.7675C29.9599 42.8818 29.5952 41.4228 28.6573 41.0581C27.8236 40.7455 26.1563 40.5892 26.2084 39.4429C26.2084 39.4429 26.2605 39.5471 26.3647 39.6513C27.0421 40.3287 28.0321 40.2765 28.5531 39.7034C29.0741 39.1303 29.1262 38.0361 28.4489 37.3587C27.8236 36.7335 26.0521 36.7335 26.0521 35.7435V32.8256C26.1042 33.6593 27.0421 34.1283 28.1363 34.493C28.8657 33.7114 29.3868 32.8778 29.1784 32.1483L30.5852 34.5972C31.0541 35.4309 29.5431 36.3166 29.3347 37.1503C29.0741 38.0361 29.6994 38.9739 30.4289 39.2345C31.2104 39.495 32.0962 39.026 32.3046 38.0882C32.3567 37.9319 32.3046 37.8277 32.3046 37.8277C32.9299 38.7655 31.523 39.7034 31.002 40.4329C30.3767 41.2144 30.7936 42.6733 31.992 42.986C33.8677 43.4549 34.024 41.0581 34.024 41.0581C34.5972 42.1523 33.8156 42.4649 33.0862 44.028C32.4088 45.4349 33.2946 46.3727 33.9198 46.5291C35.014 46.7896 35.4309 45.9559 36.0561 44.8096C36.2124 45.0701 35.7435 46.1122 36.2124 46.9459C36.5771 47.6232 37.8276 48.7174 38.7655 48.1443C39.7555 47.5711 39.3908 46.008 39.026 45.3307C38.5571 44.497 37.4108 44.3407 37.2545 44.1323C38.5571 44.1323 39.495 44.2365 39.8076 43.1423C40.016 42.517 39.6513 41.2665 38.0361 41.1623C36.3166 41.006 35.5872 41.5271 34.9619 40.485C34.9619 40.485 37.0982 41.5271 37.6713 39.7034C38.0361 38.505 36.9419 37.4108 35.9519 37.5671C35.0661 37.6713 33.5551 38.4008 33.0341 37.4108C33.0341 37.4108 33.1383 37.4629 33.2425 37.515C34.1283 37.7755 35.014 37.2545 35.1703 36.4208C35.3266 35.6914 34.8056 34.7014 33.9198 34.4409C33.0341 34.2325 31.523 35.0661 31.0541 34.2325L29.5431 31.6794C30.012 32.3567 31.0541 32.3567 32.1483 32.0962C32.3567 31.0541 32.4088 30.1683 31.9399 29.5952L34.3367 30.9499C35.1703 31.4188 34.2846 32.9299 34.5451 33.8156C34.8056 34.7014 35.7956 35.2224 36.525 35.0661C37.3587 34.9098 37.8276 34.024 37.6192 33.1383C37.5671 32.982 37.515 32.9299 37.515 32.9299C38.505 33.4509 37.7755 34.9619 37.6713 35.8477C37.515 36.8377 38.6092 37.8798 39.8076 37.5671C41.6313 37.0461 40.5892 34.9098 40.5892 34.9098C41.6313 35.5351 41.1102 36.2124 41.2665 37.984C41.4228 39.5471 42.6212 39.9118 43.2465 39.7555C44.3407 39.4429 44.2365 38.505 44.2365 37.2024C44.497 37.3587 44.6012 38.4529 45.4349 38.9739C46.1122 39.3387 47.6753 39.7034 48.2485 38.7134C48.8216 37.7234 47.7274 36.525 47.0501 36.1603C46.2164 35.6914 45.1743 36.1082 44.9138 36.004C46.0601 35.3788 46.8938 34.9619 46.6333 33.8677C46.4769 33.1904 45.5391 32.3567 44.1323 33.0341C42.5691 33.7635 42.2044 34.5451 41.1102 33.9719C41.1102 33.9719 43.507 33.8156 43.0381 31.9399C42.7254 30.7415 41.2665 30.3246 40.485 30.9499C39.7555 31.523 38.8176 32.8777 37.8797 32.2525C37.8797 32.2525 37.984 32.2525 38.1403 32.2525C39.026 31.992 39.5471 31.1583 39.2866 30.3767C39.0782 29.6473 38.1403 29.022 37.2024 29.2826C36.3166 29.491 35.483 31.0541 34.6493 30.5331L32.0962 29.0741C32.0962 29.0741 32.0962 29.0741 32.0962 29.022C32.8778 29.3868 33.7114 28.8136 34.5451 28.0842C34.2325 27.0942 33.8156 26.3126 33.1383 26.0521H35.7956C36.7856 26.0521 36.7856 27.8236 37.4108 28.4489C38.0882 29.1262 39.1824 29.0741 39.7555 28.5531C40.3808 27.98 40.3808 26.99 39.7034 26.3647C39.5992 26.2605 39.495 26.2084 39.495 26.2084C40.5892 26.1563 40.7455 27.8236 41.1102 28.6573C41.4749 29.5952 42.9339 29.9599 43.8196 29.0741C45.1743 27.6673 43.1423 26.3647 43.1423 26.3647C44.3407 26.4168 44.2886 27.2505 45.2785 28.7094C46.1643 30.012 47.4148 29.6994 47.8838 29.2305C48.6653 28.3968 48.1443 27.6673 47.4669 26.521C47.7274 26.521 48.4048 27.4589 49.3948 27.4589C50.1763 27.4589 51.7395 26.99 51.7395 25.8437C52.2605 24.7495 50.7495 24.2806 49.9679 24.2806ZM22.509 22.2485C23.0301 22.1443 23.499 22.0401 23.7074 22.3006C23.9679 22.6653 24.9058 24.2285 25.479 25.2184C24.489 24.6453 22.978 23.7074 22.5611 23.4469C22.3006 23.2385 22.3527 22.7695 22.509 22.2485ZM22.1964 24.02C22.6132 24.2285 24.1763 25.1142 25.1663 25.6353C24.02 25.6353 22.2485 25.5832 21.7796 25.5311C21.4669 25.479 21.3106 25.0621 21.1543 24.5411C21.5711 24.1763 21.9359 23.8637 22.1964 24.02ZM22.1964 27.7715C21.9359 27.8757 21.5711 27.6152 21.1543 27.1984C21.3106 26.6774 21.4669 26.2084 21.7796 26.2084C22.2485 26.1563 24.02 26.1563 25.1663 26.1042C24.1763 26.7295 22.6132 27.5631 22.1964 27.7715ZM23.6553 29.491C23.499 29.7515 23.0301 29.6473 22.4569 29.5431C22.3527 29.022 22.2485 28.5531 22.509 28.3447C22.8737 28.0842 24.4369 27.1463 25.4268 26.5731C24.8537 27.5631 23.9158 29.1262 23.6553 29.491ZM25.7916 30.2725C25.7395 30.5852 25.3226 30.7415 24.8016 30.8978C24.4369 30.481 24.1242 30.1162 24.2285 29.8557C24.4369 29.4389 25.2705 27.8757 25.8437 26.8858C25.8437 27.98 25.8437 29.8036 25.7916 30.2725ZM24.2285 21.9359C24.1242 21.6753 24.3848 21.3106 24.8016 20.8938C25.3226 21.0501 25.7916 21.2064 25.7916 21.519C25.8437 21.988 25.8437 23.7595 25.8958 24.9058C25.3226 23.9158 24.4369 22.3527 24.2285 21.9359ZM28.6052 22.3006C28.7615 22.0401 29.2305 22.1443 29.8036 22.2485C29.9078 22.7695 30.012 23.2385 29.7515 23.4469C29.3868 23.7074 27.8236 24.6453 26.8337 25.2184C27.4068 24.2285 28.3447 22.6653 28.6052 22.3006ZM26.4689 21.519C26.521 21.2064 26.9379 21.0501 27.4589 20.8938C27.8236 21.3106 28.1363 21.6753 28.0321 21.9359C27.8236 22.3527 26.99 23.9158 26.4168 24.9058C26.4168 23.8116 26.4168 21.988 26.4689 21.519ZM27.4589 30.8978C26.9379 30.7415 26.4689 30.5852 26.4689 30.2725C26.4168 29.8036 26.4168 28.0321 26.3647 26.8858C26.9379 27.8757 27.7715 29.4389 27.98 29.8557C28.1363 30.1162 27.8236 30.481 27.4589 30.8978ZM29.8036 29.5431C29.2826 29.6473 28.8136 29.7515 28.6052 29.491C28.3447 29.1262 27.4068 27.5631 26.8337 26.5731C27.8236 27.1463 29.3347 28.0842 29.7515 28.3447C29.9599 28.5531 29.9078 29.022 29.8036 29.5431ZM30.0641 27.7715C29.6473 27.5631 28.0842 26.6774 27.0942 26.1563C28.2405 26.1563 30.012 26.2084 30.481 26.2605C30.7936 26.3126 30.9499 26.7295 31.1062 27.2505C30.7415 27.6152 30.3767 27.8757 30.0641 27.7715ZM30.481 25.5311C30.012 25.5832 28.2405 25.5832 27.0942 25.6353C28.0842 25.0621 29.6473 24.2285 30.0641 24.02C30.3246 23.9158 30.6894 24.1763 31.1062 24.5932C30.9499 25.0621 30.7936 25.5311 30.481 25.5311Z" fill="#FCAF17"/>
</svg>
