<svg width="15" height="4" viewBox="0 0 15 4" fill="none" xmlns="http://www.w3.org/2000/svg">
<path d="M10.8898 4C9.73229 4 8.48031 3.56245 7.1811 2.66303C5.7874 1.715 4.55906 1.39898 3.47244 1.66638C2.07874 2.03101 1.3937 3.39229 1.37008 3.39229L0 2.68734C0.0472441 2.61441 0.992125 0.718346 3.04724 0.15925C4.55905 -0.253995 6.2126 0.134942 7.98425 1.35037C9.37795 2.2984 10.6063 2.61441 11.6457 2.32271C12.9685 1.93377 13.6063 0.596804 13.6063 0.596804L15 1.25313C14.9528 1.32606 14.0787 3.24643 12.0709 3.82984C11.6929 3.95138 11.2913 4 10.8898 4Z" fill="#EFBB10"/>
</svg>
