<svg width="9" height="19" viewBox="0 0 9 19" fill="none" xmlns="http://www.w3.org/2000/svg">
<path fill-rule="evenodd" clip-rule="evenodd" d="M2.3498 13.7363C2.3498 12.3878 2.34219 11.0393 2.35742 9.69078C2.35742 9.46222 2.29648 9.39365 2.06793 9.40127C1.64894 9.41651 1.22994 9.40127 0.80333 9.40889C0.635732 9.41651 0.567169 9.36318 0.574787 9.18795C0.582405 8.34989 0.582405 7.50422 0.574787 6.66617C0.574787 6.50618 0.620496 6.45285 0.788094 6.45285C1.21471 6.46046 1.64894 6.43761 2.07555 6.46046C2.32695 6.4757 2.37266 6.38428 2.37266 6.15572C2.35742 5.51575 2.35742 4.87578 2.37266 4.23581C2.38789 3.45109 2.6012 2.7197 3.0659 2.08735C3.6525 1.27977 4.49049 0.914077 5.45799 0.868365C6.44834 0.822653 7.44631 0.845509 8.44428 0.837891C8.58141 0.837891 8.62711 0.883603 8.62711 1.02074C8.6195 1.87403 8.6195 2.7197 8.62711 3.57299C8.62711 3.72536 8.58141 3.77108 8.42904 3.77108C7.9491 3.76346 7.46916 3.77108 6.99684 3.77108C6.35692 3.77108 5.97602 4.09868 5.93793 4.73103C5.90745 5.23386 5.93031 5.74431 5.91507 6.25476C5.90745 6.43761 6.02173 6.42237 6.136 6.42237C6.85972 6.42237 7.59105 6.42999 8.31477 6.41475C8.52808 6.41475 8.59664 6.46046 8.57379 6.68141C8.48237 7.52708 8.40619 8.37275 8.33001 9.22604C8.31477 9.41651 8.22336 9.4546 8.05576 9.4546C7.4844 9.44698 6.90543 9.44698 6.33407 9.4546C5.92269 9.4546 5.96078 9.39365 5.96078 9.81268C5.96078 12.4564 5.95316 15.0924 5.9684 17.7361C5.9684 18.018 5.89984 18.0865 5.62559 18.0789C4.64285 18.0637 3.6525 18.0561 2.66976 18.0789C2.39551 18.0865 2.3498 17.9875 2.3498 17.7437C2.35742 16.3952 2.3498 15.0619 2.3498 13.7363Z" fill="white"/>
</svg>
