<svg width="24.000000000000004" height="24.000000000000004" xmlns="http://www.w3.org/2000/svg">

 <g>
  <title>background</title>
  <rect fill="none" id="canvas_background" height="402" width="582" y="-1" x="-1"/>
 </g>
 <g>
  <title>Layer 1</title>
  <path fill="#ffffff" id="svg_1" d="m12.004,5.838c-3.403,0 -6.158,2.758 -6.158,6.158c0,3.403 2.758,6.158 6.158,6.158c3.403,0 6.158,-2.758 6.158,-6.158c0,-3.403 -2.758,-6.158 -6.158,-6.158zm0,10.155c-2.209,0 -3.997,-1.789 -3.997,-3.997s1.789,-3.997 3.997,-3.997s3.997,1.789 3.997,3.997c0.001,2.208 -1.788,3.997 -3.997,3.997z"/>
  <path fill="#ffffff" id="svg_2" d="m16.948,0.076c-2.208,-0.103 -7.677,-0.098 -9.887,0c-1.942,0.091 -3.655,0.56 -5.036,1.941c-2.308,2.308 -2.013,5.418 -2.013,9.979c0,4.668 -0.26,7.706 2.013,9.979c2.317,2.316 5.472,2.013 9.979,2.013c4.624,0 6.22,0.003 7.855,-0.63c2.223,-0.863 3.901,-2.85 4.065,-6.419c0.104,-2.209 0.098,-7.677 0,-9.887c-0.198,-4.213 -2.459,-6.768 -6.976,-6.976zm3.495,20.372c-1.513,1.513 -3.612,1.378 -8.468,1.378c-5,0 -7.005,0.074 -8.468,-1.393c-1.685,-1.677 -1.38,-4.37 -1.38,-8.453c0,-5.525 -0.567,-9.504 4.978,-9.788c1.274,-0.045 1.649,-0.06 4.856,-0.06l0.045,0.03c5.329,0 9.51,-0.558 9.761,4.986c0.057,1.265 0.07,1.645 0.07,4.847c-0.001,4.942 0.093,6.959 -1.394,8.453z"/>
  <circle fill="#ffffff" id="svg_3" r="1.439" cy="5.595" cx="18.406"/>
 </g>
</svg>