<svg width="20" height="14" viewBox="0 0 20 14" fill="none" xmlns="http://www.w3.org/2000/svg">
<path d="M1.8539 0.211426H17.6907C18.6505 0.211426 19.4303 0.991266 19.4303 1.95107V11.6691C19.4303 12.5689 18.6505 13.3487 17.6907 13.3487H1.8539C0.894098 13.3487 0.114258 12.5689 0.114258 11.6691V1.95107C0.114258 0.991266 0.894098 0.211426 1.8539 0.211426ZM18.2905 11.969L12.3518 6.93005L11.152 7.76988C10.3122 8.36975 9.23239 8.36975 8.45255 7.76988L7.19281 6.93005L1.25402 11.969C1.374 12.209 1.61395 12.3289 1.8539 12.3289H17.6907C17.9906 12.3289 18.1706 12.209 18.2905 11.969ZM13.1916 6.27018L18.4105 10.7093V2.49096L13.1916 6.27018ZM1.13405 10.7093L6.35298 6.27018L1.13405 2.49096V10.7093ZM1.43399 1.41118L9.05243 6.93005C9.47234 7.28998 10.0722 7.28998 10.5521 6.93005L18.1706 1.41118C18.0506 1.2912 17.8706 1.23122 17.6907 1.23122H1.8539C1.67394 1.23122 1.49398 1.2912 1.43399 1.41118Z" fill="white"/>
</svg>
